<?xml version="1.0" standalone="no"?>
<!DOCTYPE svg PUBLIC "-//W3C//DTD SVG 20010904//EN"
 "http://www.w3.org/TR/2001/REC-SVG-20010904/DTD/svg10.dtd">
<svg version="1.0" xmlns="http://www.w3.org/2000/svg"
 width="894.000000pt" height="198.000000pt" viewBox="0 0 894.000000 198.000000"
 preserveAspectRatio="xMidYMid meet">

<g transform="translate(0.000000,198.000000) scale(0.100000,-0.100000)"
fill="#000000" stroke="none">
<path d="M3400 1926 c-163 -119 -433 -500 -552 -778 -39 -90 -53 -111 -136
-199 -93 -98 -166 -147 -198 -135 -35 13 14 200 87 333 43 79 46 95 24 113
-21 17 -44 -4 -83 -78 -31 -57 -257 -332 -279 -339 -14 -5 0 67 16 76 5 4 10
15 9 26 -1 11 20 68 45 126 26 59 47 115 47 124 0 22 -29 45 -48 38 -15 -6
-78 -127 -102 -198 l-17 -50 -54 -6 c-30 -3 -71 -11 -91 -17 -21 -6 -38 -7
-38 -3 0 4 14 44 30 89 17 46 30 99 30 120 -1 41 -19 72 -43 72 -19 0 -38 -53
-31 -88 9 -49 -10 -59 -146 -77 -241 -31 -280 -38 -660 -120 -429 -93 -663
-125 -900 -125 -165 0 -285 15 -243 31 26 10 55 61 47 83 -9 24 -57 19 -82 -7
-31 -33 -28 -70 8 -101 59 -49 168 -62 393 -47 211 14 384 41 731 112 160 33
354 73 431 89 144 30 370 64 385 58 4 -2 -3 -33 -17 -70 l-25 -67 -116 -64
c-217 -119 -317 -191 -463 -335 -164 -162 -193 -209 -193 -317 0 -127 39 -185
124 -185 127 0 380 231 515 470 53 93 185 372 185 390 0 5 42 23 93 40 74 25
83 30 47 26 -53 -6 -26 8 35 18 29 5 36 4 25 -3 -8 -6 -10 -11 -4 -11 7 0 9
-17 6 -49 -4 -43 -1 -53 21 -75 51 -51 85 -35 173 84 36 50 67 90 68 90 2 0 1
-34 -2 -75 -5 -86 9 -118 60 -140 57 -23 112 4 200 99 l56 61 -20 -75 c-31
-116 -29 -194 7 -266 37 -73 80 -104 143 -104 60 0 112 26 200 100 63 54 165
168 213 240 17 25 17 24 12 -21 -5 -42 -3 -48 27 -72 45 -38 102 -37 163 4 26
17 49 35 52 40 3 4 15 -1 25 -11 11 -11 24 -20 30 -20 19 0 86 69 165 172 67
87 213 233 223 223 2 -2 -8 -26 -22 -53 -43 -85 -78 -202 -71 -236 12 -61 69
-102 123 -90 67 16 146 70 224 153 44 47 87 99 95 116 l16 29 -32 -29 c-17
-17 -35 -30 -39 -30 -4 0 -21 -10 -37 -23 -17 -13 -59 -46 -95 -74 -71 -56
-160 -101 -188 -96 -26 5 -17 51 39 204 27 74 49 140 49 148 0 23 -81 114
-111 125 -23 8 -35 5 -71 -18 -51 -33 -86 -74 -201 -243 -88 -128 -195 -240
-259 -271 -32 -16 -33 -15 -36 4 -8 45 33 166 99 295 38 74 69 143 69 153 0
10 -11 24 -25 31 -20 11 -27 11 -41 0 -16 -14 -105 -185 -119 -230 -10 -33
-31 -57 -200 -235 -161 -169 -238 -225 -312 -225 -61 0 -77 34 -70 144 8 118
20 153 59 162 99 21 404 441 604 830 88 170 98 209 68 252 -23 33 -69 29 -124
-12z m86 -48 c-13 -73 -190 -389 -313 -560 -163 -228 -302 -398 -324 -398 -20
0 116 314 194 445 79 132 262 374 350 463 45 45 86 82 91 82 4 0 6 -15 2 -32z
m-386 -337 c-5 -11 -15 -23 -21 -27 -6 -3 -3 5 6 20 20 30 30 35 15 7z m-84
-125 c-14 -24 -22 -47 -18 -51 4 -5 1 -5 -6 -1 -11 6 -11 12 1 29 8 12 19 32
26 45 6 12 14 22 17 22 3 0 -6 -20 -20 -44z m-49 -97 c1 -11 -5 -23 -13 -26
-7 -3 -11 -9 -8 -14 3 -5 1 -9 -4 -9 -5 0 -26 -36 -46 -80 -36 -76 -56 -107
-36 -56 11 30 99 206 103 206 1 0 3 -9 4 -21z m960 -147 c-14 -20 -49 -62 -79
-93 -29 -30 -82 -87 -116 -125 -70 -76 -70 -74 2 36 89 135 205 259 214 230 2
-6 -7 -28 -21 -48z m-2460 -188 c-3 -3 -12 -4 -19 -1 -8 3 -5 6 6 6 11 1 17
-2 13 -5z m-232 -49 c-249 -55 -446 -91 -595 -110 -148 -19 -419 -29 -489 -18
-40 6 -7 8 130 9 193 1 328 13 519 45 148 26 564 109 569 115 2 2 18 4 35 3
17 0 -59 -20 -169 -44z m2042 -127 c-65 -84 -137 -159 -137 -144 0 4 34 48 75
97 41 49 84 103 97 119 12 17 24 26 26 21 2 -6 -25 -48 -61 -93z m-1358 59
c-2 -2 -44 -25 -94 -51 -130 -68 -272 -166 -330 -227 l-50 -53 60 53 c79 69
219 163 318 212 94 48 94 52 7 -121 -146 -293 -284 -475 -431 -570 -75 -49
-112 -56 -163 -35 l-39 16 6 61 c7 76 58 182 122 255 44 50 57 71 33 57 -7 -4
6 14 27 40 38 44 148 141 225 197 81 59 300 182 309 173 2 -2 2 -6 0 -7z
m-343 -646 c-4 -5 -30 -28 -59 -52 l-52 -42 50 50 c45 46 75 68 61 44z"/>
<path d="M1399 503 l-34 -38 38 34 c20 19 37 36 37 38 0 8 -8 0 -41 -34z"/>
<path d="M6350 1939 c-55 -33 -180 -167 -275 -293 -96 -129 -171 -249 -251
-406 -30 -58 -85 -146 -122 -195 -86 -115 -225 -256 -280 -284 l-42 -21 0 34
c0 58 39 166 106 294 35 67 64 131 64 141 0 21 -57 50 -68 35 -7 -9 -48 -33
-117 -68 -22 -11 -77 -46 -122 -79 -51 -36 -87 -56 -95 -51 -7 4 -10 4 -6 -1
4 -4 3 -14 -3 -22 -14 -16 -33 -18 -23 -2 4 6 -31 -16 -77 -50 -46 -33 -88
-61 -94 -61 -18 0 -109 57 -135 84 l-24 27 23 45 c48 89 240 238 349 270 66
20 84 48 56 88 -16 23 -25 26 -57 22 -82 -9 -282 -149 -359 -251 -54 -70 -64
-111 -48 -182 10 -48 21 -65 67 -110 29 -29 61 -53 70 -53 14 0 14 -2 -2 -20
-10 -11 -24 -20 -30 -20 -16 0 -95 -86 -95 -103 0 -8 -9 -22 -21 -33 -18 -16
-20 -26 -15 -68 7 -66 27 -86 85 -86 64 0 145 40 209 103 52 51 52 52 52 113
0 49 -5 69 -25 98 -30 45 -30 47 -2 67 211 153 389 279 392 279 2 0 -10 -30
-27 -67 -46 -103 -77 -195 -90 -274 l-12 -71 32 -29 c51 -46 103 -41 181 16
34 25 61 48 61 52 1 5 29 39 64 78 l64 70 -24 -90 c-59 -213 7 -375 151 -375
72 0 141 43 255 159 80 81 213 251 196 251 -3 0 -32 -35 -65 -77 -59 -78 -151
-174 -151 -159 0 4 26 38 59 74 32 37 89 108 126 157 37 50 70 92 73 95 3 3 2
-13 -2 -35 -23 -143 -27 -194 -17 -232 15 -54 50 -84 105 -90 73 -9 112 25
222 192 115 175 270 446 279 486 5 22 2 36 -11 50 -17 19 -50 28 -40 10 7 -10
-61 -151 -107 -223 -19 -30 -39 -65 -46 -78 l-12 -25 19 23 c10 13 51 82 92
153 40 71 75 127 77 125 9 -9 -157 -297 -231 -401 -36 -49 -51 -57 -20 -10 9
14 14 25 11 25 -2 0 -33 -39 -68 -87 -72 -101 -156 -193 -174 -193 -38 0 -20
172 45 456 11 45 28 104 40 133 11 28 20 60 20 70 0 21 -56 49 -70 35 -13 -13
-110 -242 -110 -259 0 -8 5 -15 10 -15 22 0 8 -50 -30 -101 -22 -30 -112 -129
-200 -220 -170 -177 -241 -229 -314 -229 -71 0 -93 85 -61 229 15 66 17 68 54
80 100 29 377 405 579 786 44 83 88 173 98 202 18 52 18 53 -2 80 -27 36 -68
40 -114 12z m72 -56 c-7 -38 -98 -219 -175 -350 -113 -189 -336 -491 -427
-578 -42 -39 -42 -39 -36 -13 19 81 142 343 214 458 127 201 381 510 418 510
7 0 9 -11 6 -27z m-382 -332 c-5 -11 -15 -23 -21 -27 -6 -3 -3 5 6 20 20 30
30 35 15 7z m-66 -93 c-4 -7 -18 -30 -31 -51 -13 -21 -22 -41 -19 -46 3 -4 -4
-15 -15 -24 -11 -10 -17 -23 -13 -29 4 -7 3 -8 -4 -4 -14 8 -10 17 45 109 19
31 37 57 39 57 3 0 2 -6 -2 -12z m-123 -221 c-10 -9 -11 -8 -5 6 3 10 9 15 12
12 3 -3 0 -11 -7 -18z m-26 -56 c-21 -43 -29 -39 -8 4 9 19 18 33 21 31 2 -2
-4 -18 -13 -35z m551 -271 c-9 -47 -17 -98 -19 -115 -3 -23 -4 -20 -6 12 0 23
6 72 14 109 9 36 14 74 12 83 -3 11 -5 9 -6 -6 0 -12 -5 -25 -11 -28 -5 -3
-10 -16 -11 -28 0 -12 -3 -16 -6 -9 -3 7 2 35 11 62 9 27 16 57 17 67 1 10 5
0 11 -22 6 -29 5 -64 -6 -125z m-627 91 c-6 -18 -13 -30 -15 -28 -2 2 1 18 7
36 6 18 13 30 15 28 2 -2 -1 -18 -7 -36z m971 -10 c-5 -11 -15 -23 -22 -27 -7
-5 -8 -2 -3 7 21 37 44 55 25 20z m-383 -118 c-3 -10 -5 -4 -5 12 0 17 2 24 5
18 2 -7 2 -21 0 -30z m-1347 -73 c45 -23 46 -25 22 -61 -61 -91 -132 -138
-209 -139 -49 0 -52 8 -22 56 17 29 154 164 166 164 2 0 22 -9 43 -20z m1367
-72 c-3 -8 -6 -5 -6 6 -1 11 2 17 5 13 3 -3 4 -12 1 -19z"/>
<path d="M3654 1533 c-49 -53 -94 -123 -94 -145 0 -17 37 -40 51 -32 15 9 110
177 107 191 -6 30 -28 25 -64 -14z"/>
<path d="M5633 1523 c-70 -85 -93 -124 -83 -143 15 -28 49 -32 64 -7 7 12 32
52 55 89 24 37 41 75 39 85 -6 34 -35 25 -75 -24z"/>
<path d="M2117 1403 c-13 -12 -7 -32 15 -53 27 -25 48 -26 48 -2 0 38 -43 76
-63 55z"/>
<path d="M7080 1276 c-19 -13 -53 -45 -76 -72 -57 -70 -188 -263 -203 -301 -8
-18 -17 -31 -21 -28 -4 2 -5 -8 -3 -23 3 -23 2 -24 -6 -7 -9 19 -10 19 -10 -2
-1 -33 16 -71 38 -82 28 -15 70 24 177 162 73 95 240 258 221 217 -74 -170
-89 -216 -85 -277 3 -53 9 -68 33 -93 68 -71 180 -77 450 -21 141 29 574 146
585 158 3 3 -7 3 -22 -1 -16 -3 -40 -9 -55 -12 -16 -4 -26 -4 -23 -1 6 6 308
87 325 87 6 0 3 -5 -5 -10 -13 -9 -13 -10 0 -9 8 0 42 6 75 14 l60 14 -55 -4
c-46 -3 -40 -1 35 15 50 10 144 21 210 24 l120 5 -105 -9 c-132 -12 -164 -21
-47 -14 48 3 114 3 147 -1 l59 -7 -19 -21 c-22 -22 -26 -62 -10 -72 20 -13 60
24 60 55 0 64 -60 85 -219 77 -192 -11 -340 -43 -771 -165 -282 -80 -396 -106
-533 -121 -113 -13 -165 -7 -210 23 -50 33 -48 71 12 236 28 77 51 148 51 159
0 25 -102 131 -126 130 -10 0 -35 -11 -54 -23z m60 -62 c-15 -39 -32 -59 -250
-294 l-32 -35 28 50 c30 55 104 155 156 213 28 31 97 91 105 92 1 0 -2 -12 -7
-26z m915 -334 c-11 -5 -27 -9 -35 -9 -9 0 -8 4 5 9 11 5 27 9 35 9 9 0 8 -4
-5 -9z m-109 -31 c-33 -11 -61 -17 -63 -15 -6 5 86 34 107 34 8 0 -12 -9 -44
-19z"/>
<path d="M6672 1010 c-25 -33 -30 -56 -6 -25 18 24 36 55 31 55 -2 0 -13 -13
-25 -30z"/>
<path d="M8553 993 c9 -2 25 -2 35 0 9 3 1 5 -18 5 -19 0 -27 -2 -17 -5z"/>
<path d="M8285 942 c-33 -8 -55 -17 -50 -18 6 -2 42 5 80 15 39 11 61 19 50
19 -11 0 -47 -7 -80 -16z"/>
<path d="M8198 913 c7 -3 16 -2 19 1 4 3 -2 6 -13 5 -11 0 -14 -3 -6 -6z"/>
<path d="M5120 385 c-21 -22 -21 -25 -6 -25 10 0 31 11 48 25 29 25 29 25 6
25 -14 0 -35 -11 -48 -25z"/>
<path d="M2680 195 l0 -145 78 0 c91 0 135 18 169 69 46 69 19 165 -57 203
-24 13 -59 18 -112 18 l-78 0 0 -145z m164 101 c44 -18 66 -52 66 -101 0 -73
-53 -115 -145 -115 l-45 0 0 115 0 115 45 0 c25 0 61 -6 79 -14z"/>
<path d="M3010 195 l0 -145 100 0 c82 0 100 3 100 15 0 12 -16 15 -80 15 l-80
0 0 50 0 50 70 0 c56 0 70 3 70 15 0 12 -14 15 -70 15 l-70 0 0 50 0 50 80 0
c64 0 80 3 80 15 0 12 -18 15 -100 15 l-100 0 0 -145z"/>
<path d="M3307 324 c-37 -20 -51 -58 -35 -92 10 -20 29 -32 73 -47 77 -26 85
-31 85 -61 0 -18 -8 -27 -27 -35 -30 -11 -90 -4 -111 13 -15 13 -38 -4 -28
-21 11 -17 87 -33 125 -27 68 11 105 81 63 119 -9 9 -47 26 -82 39 -56 20 -65
26 -65 48 0 18 9 29 30 39 26 12 35 12 72 -1 36 -13 43 -13 47 -1 8 21 9 20
-25 32 -44 15 -89 13 -122 -5z"/>
<path d="M3530 195 c0 -138 1 -145 20 -145 19 0 20 7 20 145 0 138 -1 145 -20
145 -19 0 -20 -7 -20 -145z"/>
<path d="M3721 322 c-96 -48 -106 -181 -20 -245 37 -27 106 -33 152 -14 37 16
37 16 37 76 0 47 -3 61 -14 61 -11 0 -16 -15 -18 -52 -3 -49 -5 -52 -36 -60
-75 -20 -142 32 -142 107 0 82 77 133 154 101 61 -25 81 0 22 28 -44 21 -92
20 -135 -2z"/>
<path d="M3970 195 c0 -138 1 -145 20 -145 18 0 20 8 22 107 l3 106 83 -106
c46 -59 90 -107 98 -107 11 0 14 27 14 145 0 138 -1 145 -20 145 -18 0 -20 -8
-22 -105 l-3 -105 -80 105 c-111 144 -115 143 -115 -40z"/>
<path d="M4461 322 c-96 -48 -106 -181 -20 -245 37 -27 106 -33 152 -14 37 16
37 16 37 76 0 47 -3 61 -14 61 -11 0 -16 -15 -18 -52 -3 -49 -5 -52 -36 -60
-75 -20 -142 32 -142 107 0 82 77 133 154 101 61 -25 81 0 22 28 -44 21 -92
20 -135 -2z"/>
<path d="M4720 196 c0 -139 1 -146 20 -146 17 0 20 7 20 45 l0 45 45 0 c41 0
46 -3 75 -45 19 -28 38 -45 51 -45 22 0 21 5 -19 58 l-25 33 29 30 c39 41 40
98 1 136 -25 25 -35 28 -112 32 l-85 3 0 -146z m170 89 c11 -10 20 -30 20 -45
0 -40 -32 -63 -95 -68 l-55 -4 0 72 0 72 55 -4 c34 -3 62 -12 75 -23z"/>
<path d="M5106 332 c-3 -5 -32 -70 -65 -145 -53 -121 -58 -137 -41 -137 13 0
25 12 34 35 l15 35 76 0 75 0 17 -35 c10 -22 24 -35 36 -35 10 0 17 4 15 8
-67 165 -126 282 -140 282 -9 0 -19 -4 -22 -8z m49 -98 c36 -81 35 -84 -30
-84 -30 0 -55 4 -55 9 0 12 51 131 56 131 3 0 15 -25 29 -56z"/>
<path d="M5310 195 c0 -138 1 -145 20 -145 18 0 20 7 20 60 l0 60 70 0 c56 0
70 3 70 15 0 12 -14 15 -70 15 l-70 0 0 55 0 55 80 0 c64 0 80 3 80 15 0 12
-18 15 -100 15 l-100 0 0 -145z"/>
<path d="M5570 195 c0 -138 1 -145 20 -145 19 0 20 7 20 145 0 138 -1 145 -20
145 -19 0 -20 -7 -20 -145z"/>
<path d="M5751 323 c-54 -28 -76 -66 -76 -128 0 -62 22 -100 76 -128 40 -22
106 -18 145 8 39 25 16 39 -31 19 -78 -32 -155 18 -155 101 0 92 105 146 171
89 14 -13 18 -12 28 0 10 12 8 18 -13 32 -39 25 -105 28 -145 7z"/>
<path d="M6041 322 c-96 -48 -106 -181 -20 -245 64 -46 180 -22 215 45 39 75
12 166 -59 199 -53 23 -92 24 -136 1z m114 -26 c89 -37 83 -175 -9 -206 -75
-24 -146 27 -146 104 0 49 21 83 64 102 40 17 49 17 91 0z"/>
</g>
</svg>
